<svg width="40" height="40" viewBox="0 0 40 40" fill="none" xmlns="http://www.w3.org/2000/svg">
<rect width="40" height="40" rx="10" fill="#167D08"/>
<path d="M20 15V20L23 23M29.9354 21.1419C30.1628 19.1493 29.7866 17.1343 28.8555 15.3582C27.9245 13.5822 26.4816 12.1271 24.7141 11.1817C22.9465 10.2362 20.9359 9.84407 18.9429 10.0561C16.9499 10.2681 15.0666 11.0745 13.5372 12.3706C12.0077 13.6668 10.9028 15.3929 10.3658 17.3251C9.82867 19.2573 9.88418 21.3064 10.5251 23.2067C11.166 25.1069 12.3628 26.7706 13.9601 27.9819C15.5574 29.1933 17.4817 29.8964 19.4832 30M23 28L25.3333 30L30 26" stroke="white" stroke-width="2" stroke-linecap="round" stroke-linejoin="round"/>
</svg>
