<svg width="32" height="32" viewBox="0 0 32 32" fill="none" xmlns="http://www.w3.org/2000/svg">
<path d="M16.7913 15.2098C16.7333 15.1517 16.6643 15.1056 16.5885 15.0742C16.5126 15.0427 16.4313 15.0265 16.3491 15.0265C16.267 15.0265 16.1857 15.0427 16.1098 15.0742C16.0339 15.1056 15.965 15.1517 15.9069 15.2098C15.6632 15.4536 15.6632 15.8492 15.9069 16.0936C16.1513 16.3373 16.5469 16.3373 16.7913 16.0936C17.0351 15.8492 17.0351 15.4536 16.7913 15.2098ZM24.7457 7.25478C23.5245 6.03359 21.5475 6.03353 20.3262 7.25478C19.1081 8.47284 19.1081 10.4553 20.3264 11.6744C21.5449 12.8921 23.5274 12.8926 24.7457 11.6743C25.9669 10.4531 25.9671 8.47609 24.7457 7.25478ZM23.8619 10.7903C23.131 11.5212 21.9414 11.5212 21.2102 10.7905C20.4793 10.0591 20.4792 8.86946 21.2101 8.13865C21.9428 7.40597 23.129 7.40584 23.8619 8.13865C24.5945 8.87128 24.5947 10.0576 23.8619 10.7903Z" fill="#111827"/>
<path d="M31.8169 0.183062C31.7563 0.122253 31.6837 0.0746383 31.6038 0.0432104C31.5239 0.0117824 31.4384 -0.00278017 31.3525 0.000437373C31.2112 0.00549986 27.8466 0.14075 23.8469 1.55443C20.6419 2.68606 17.9704 4.30624 15.9068 6.36999C15.4389 6.8385 14.9909 7.32634 14.5638 7.83223C12.5233 6.63111 10.8881 7.00774 9.85446 7.56092C7.47441 8.83467 6.00122 12.2932 6.00122 14.7669C6.00134 14.9326 6.06723 15.0916 6.18443 15.2087C6.30163 15.3259 6.46055 15.3918 6.62628 15.3919C6.70838 15.3919 6.78967 15.3758 6.86552 15.3444C6.94137 15.3129 7.01029 15.2669 7.06834 15.2088C8.32353 13.9537 9.87171 14.0322 10.3775 14.0987L10.5963 14.3175C10.1656 15.3425 9.81859 16.3618 9.56409 17.3531C9.47221 17.7118 9.50321 18.0915 9.63978 18.4387C9.03803 18.716 8.45747 19.1232 7.95197 19.6287C6.34316 21.2376 6.01647 25.1584 6.00335 25.3246C5.99623 25.4147 6.00874 25.5052 6.04001 25.59C6.07127 25.6748 6.12055 25.7518 6.18445 25.8157C6.24834 25.8796 6.32533 25.9289 6.41011 25.9601C6.49489 25.9914 6.58545 26.0039 6.67553 25.9968C6.84166 25.9838 10.7626 25.6571 12.3715 24.0483C12.8768 23.543 13.2839 22.9625 13.5612 22.3608C13.9288 22.5054 14.3072 22.5232 14.6475 22.436C15.6383 22.1816 16.6575 21.8347 17.6826 21.4039L17.9014 21.6228C17.9679 22.1286 18.0464 23.6768 16.7913 24.9318C16.7039 25.0192 16.6444 25.1306 16.6203 25.2518C16.5962 25.373 16.6085 25.4987 16.6558 25.6129C16.7032 25.7271 16.7832 25.8247 16.886 25.8933C16.9888 25.962 17.1096 25.9987 17.2332 25.9987C19.7069 25.9987 23.1654 24.5255 24.4391 22.1455C24.9923 21.1119 25.3689 19.4768 24.1678 17.4362C24.6737 17.0091 25.1615 16.561 25.6301 16.0932C27.6938 14.0295 29.3139 11.358 30.4455 8.1533C31.8593 4.15343 31.9945 0.788686 31.9995 0.647436C32.0058 0.473999 31.9396 0.305812 31.8169 0.183062ZM7.39859 13.4226C7.78684 11.5437 8.91453 9.48186 10.4445 8.66298C11.467 8.11586 12.5845 8.16948 13.7728 8.81992C12.7575 10.156 11.8779 11.5899 11.1468 13.1003C11.1375 13.0946 11.025 12.9532 10.816 12.906C10.7301 12.8866 9.0764 12.5309 7.39859 13.4226ZM11.4876 23.1643C10.6282 24.0237 8.61228 24.4769 7.33809 24.662C7.52322 23.3878 7.97653 21.3719 8.83584 20.5126C9.31709 20.0313 9.87509 19.6665 10.436 19.461L12.5392 21.5642C12.3337 22.1251 11.9689 22.6831 11.4876 23.1643ZM14.337 21.2251C14.1561 21.2715 13.9466 21.2035 13.7908 21.048L12.5667 19.8239L10.9526 18.2097C10.7967 18.0535 10.7287 17.8441 10.7749 17.6635C10.9751 16.8839 11.2369 16.084 11.5553 15.2765L16.7237 20.4449C15.916 20.7633 15.1163 21.0251 14.337 21.2251ZM23.3372 21.5556C22.5183 23.0856 20.4566 24.2133 18.5777 24.6015C19.1768 23.4742 19.3088 22.0391 19.0899 21.169C19.0391 20.9668 18.9073 20.8652 18.8999 20.8533C20.4103 20.1222 21.8441 19.2425 23.1802 18.2273C23.8307 19.4157 23.8842 20.5334 23.3372 21.5556ZM24.7463 15.2093C24.1747 15.78 23.573 16.3198 22.9438 16.8263C21.4224 18.0513 19.7479 19.089 17.9614 19.915L12.0852 14.0388C12.9112 12.2522 13.9488 10.5777 15.1737 9.05654C15.684 8.42323 16.228 7.81673 16.7909 7.25386C18.6424 5.40224 21.0321 3.92862 23.8953 2.86787L29.1323 8.10486C28.0717 10.968 26.5981 13.3577 24.7463 15.2093ZM29.582 6.78667L25.2135 2.41818C27.5936 1.67893 29.6641 1.40212 30.6976 1.30262C30.598 2.33631 30.3212 4.40687 29.582 6.78667Z" fill="#111827"/>
<path d="M15.0231 25.8152C14.7789 25.5711 14.3831 25.5712 14.1391 25.8153L12.3716 27.5834C12.1276 27.8275 12.1277 28.2233 12.3718 28.4673C12.616 28.7113 13.0117 28.7113 13.2557 28.4672L15.0232 26.699C15.2672 26.4549 15.2671 26.0592 15.0231 25.8152ZM6.18453 16.9766C5.94053 16.7324 5.54484 16.7324 5.30065 16.9764L3.53253 18.7439C3.28841 18.9879 3.28835 19.3837 3.53234 19.6278C3.77628 19.8718 4.17197 19.8721 4.41622 19.6279L6.18434 17.8604C6.42846 17.6164 6.42853 17.2207 6.18453 16.9766ZM10.6038 26.6996C10.3599 26.4555 9.96408 26.4555 9.71996 26.6995L5.48622 30.9327C5.24209 31.1767 5.24209 31.5725 5.48615 31.8165C5.73009 32.0606 6.1259 32.0607 6.37003 31.8166L10.6038 27.5835C10.8479 27.3394 10.8479 26.9437 10.6038 26.6996ZM5.60384 26.6996C5.35984 26.4555 4.96403 26.4555 4.71997 26.6995L0.486226 30.9327C0.242101 31.1767 0.242101 31.5725 0.486163 31.8165C0.7301 32.0606 1.12591 32.0607 1.37004 31.8166L5.60378 27.5835C5.8479 27.3394 5.8479 26.9437 5.60384 26.6996ZM5.30003 21.3957C5.05603 21.1517 4.66022 21.1517 4.41616 21.3958L0.183039 25.6295C-0.0610233 25.8737 -0.0610233 26.2694 0.183101 26.5135C0.427163 26.7575 0.822912 26.7575 1.06697 26.5134L5.30009 22.2797C5.54415 22.0355 5.54415 21.6399 5.30003 21.3957ZM19.4426 12.5571C19.1984 12.313 18.8028 12.313 18.5586 12.5571L17.6749 13.4408C17.4308 13.6849 17.4308 14.0806 17.6749 14.3248C17.919 14.5688 18.3147 14.5688 18.5588 14.3248L19.4426 13.441C19.6866 13.1969 19.6866 12.8012 19.4426 12.5571Z" fill="#111827"/>
</svg>
